<svg width="1181" height="727" viewBox="0 0 1181 727" fill="none" xmlns="http://www.w3.org/2000/svg">
<rect y="693" width="1181" height="34" fill="white"/>
<rect width="45" height="718" fill="white"/>
<rect x="1136" width="45" height="718" fill="white"/>
<g clip-path="url(#clip0)">
<path d="M143.8 0H6.1L6 530.2C7.2 420.5 82.1 294 109.5 178.6C123.4 120.1 130.8 58.3 143.8 0Z" fill="white"/>
<path d="M1170.1 0C1186.4 97.4 1171.5 205.8 1149.7 303.7C1117.2 449.5 1033.7 581.8 906.1 659.8C790.5 730.4 652 692.3 516.7 690.5C352.4 688.3 146.6 776.5 44.5 648.1C17.3 614 6.6 576.2 6 536.1V718H1177L1177.1 0H1170.1Z" fill="white"/>
<path d="M516.7 690.4C652 692.2 790.4 730.4 906.1 659.7C1033.7 581.7 1117.2 449.4 1149.7 303.6C1171.5 205.7 1186.4 97.3 1170.1 -0.100006H1081.8C1095.6 72.7 1093.6 151.9 1086.5 225.3C1073.9 356.7 1015 481.7 911.5 563.6C817.7 637.9 692 619 573.1 631.6C428.6 646.9 257.6 746 154 644.1C50.4 542.2 144.1 369.4 160 225C168.3 149.9 164.3 70.4 180.8 -6.10203e-06H143.9C130.8 58.3 123.4 120.1 109.6 178.6C82.1 293.9 7.3 420.5 6 530.2V536.1C6.5 576.2 17.3 614 44.4 648.1C146.5 776.4 352.4 688.2 516.7 690.4Z" fill="#59BBF2"/>
</g>
<defs>
<clipPath id="clip0">
<rect width="1171.1" height="718" fill="white" transform="translate(6)"/>
</clipPath>
</defs>
</svg>
