<svg width="2298" height="1152" viewBox="0 0 2298 1152" fill="none" xmlns="http://www.w3.org/2000/svg">
<rect y="290" width="2298" height="592" fill="#E7F7FF"/>
<path d="M2279.21 358.922C2122.42 381.502 2113.39 329.29 1952.61 329.29C1791.95 329.29 1791.95 359.297 1631.17 359.297C1470.5 359.297 1470.5 329.29 1309.72 329.29C1149.06 329.29 1149.06 359.297 988.277 359.297C827.613 359.297 827.613 329.29 666.832 329.29C506.168 329.29 506.168 359.297 345.387 359.297C184.723 359.297 185.895 352.245 29.0978 329.665C-6.17564 324.564 0.504045 321.113 0.504045 298.007C0.504045 274.827 47.379 274.827 47.379 251.722C47.379 228.541 0.504045 228.541 0.504045 205.436C0.504045 182.256 47.379 182.256 47.379 159.15C47.379 135.97 0.504045 135.97 0.504045 112.865C0.504045 89.6844 47.379 89.6844 47.379 66.579C47.379 43.3987 -16.4881 10.6911 18.7853 5.66496C175.582 -16.9153 184.606 35.2968 345.387 35.2968C506.168 35.2968 506.051 5.28987 666.832 5.28987C827.496 5.28987 827.496 35.2968 988.277 35.2968C1148.94 35.2968 1148.94 5.28987 1309.72 5.28987C1470.39 5.28987 1470.39 35.2968 1631.17 35.2968C1791.83 35.2968 1791.83 5.28987 1952.61 5.28987C2113.39 5.28987 2112.11 12.3415 2268.9 34.9217C2304.18 40.0229 2297.5 43.4737 2297.5 66.579C2297.5 89.7594 2250.62 89.7594 2250.62 112.865C2250.62 136.045 2297.5 136.045 2297.5 159.15C2297.5 182.331 2250.62 182.331 2250.62 205.436C2250.62 228.616 2297.5 228.616 2297.5 251.722C2297.5 274.902 2242.42 279.253 2251.32 301.683C2264.21 334.166 2314.49 353.82 2279.21 358.922Z" fill="#E7F7FF"/>
<path d="M2279.21 1145.34C2122.42 1167.92 2113.39 1115.71 1952.61 1115.71C1791.95 1115.71 1791.95 1145.72 1631.17 1145.72C1470.5 1145.72 1470.5 1115.71 1309.72 1115.71C1149.06 1115.71 1149.06 1145.72 988.277 1145.72C827.613 1145.72 827.613 1115.71 666.832 1115.71C506.168 1115.71 506.168 1145.72 345.387 1145.72C184.723 1145.72 185.895 1138.67 29.0978 1116.09C-6.17564 1110.99 0.504045 1107.54 0.504045 1084.43C0.504045 1061.25 47.379 1061.25 47.379 1038.14C47.379 1014.96 0.504045 1014.96 0.504045 991.858C0.504045 968.678 47.379 968.678 47.379 945.573C47.379 922.392 0.504045 922.392 0.504045 899.287C0.504045 876.107 47.379 876.107 47.379 853.001C47.379 829.821 -16.4881 797.113 18.7853 792.087C175.582 769.507 184.606 821.719 345.387 821.719C506.168 821.719 506.051 791.712 666.832 791.712C827.496 791.712 827.496 821.719 988.277 821.719C1148.94 821.719 1148.94 791.712 1309.72 791.712C1470.39 791.712 1470.39 821.719 1631.17 821.719C1791.83 821.719 1791.83 791.712 1952.61 791.712C2113.39 791.712 2112.11 798.764 2268.9 821.344C2304.18 826.445 2297.5 829.896 2297.5 853.001C2297.5 876.182 2250.62 876.182 2250.62 899.287C2250.62 922.467 2297.5 922.467 2297.5 945.573C2297.5 968.753 2250.62 968.753 2250.62 991.858C2250.62 1015.04 2297.5 1015.04 2297.5 1038.14C2297.5 1061.32 2242.42 1065.68 2251.32 1088.11C2264.21 1120.59 2314.49 1140.24 2279.21 1145.34Z" fill="#E7F7FF"/>
</svg>
