<svg width="2298" height="1152" xmlns="http://www.w3.org/2000/svg">

 <g>
  <title>background</title>
  <rect fill="none" id="canvas_background" height="602" width="802" y="-1" x="-1"/>
 </g>
 <g>
  <title>Layer 1</title>
  <rect x="-2.22221" id="svg_1" fill="#E7F7FF" height="592" width="2298" y="292.22221"/>
  <path stroke="null" id="svg_2" fill="#E7F7FF" d="m2331.74339,363.36641c-163.46121,22.58 -172.87543,-29.632 -340.49641,-29.632c-167.49588,0 -167.49588,30.007 -335.11686,30.007c-167.5063,0 -167.5063,-30.007 -335.12728,-30.007c-167.49588,0 -167.49588,30.007 -335.11998,30.007c-167.50005,0 -167.50005,-30.007 -335.12207,-30.007c-167.50005,0 -167.50005,30.007 -335.12207,30.007c-167.50005,0 -166.27818,-7.052 -329.7469,-29.632c-36.77428,-5.101 -29.81038,-8.552 -29.81038,-31.658c0,-23.18 48.86942,-23.18 48.86942,-46.285c0,-23.181 -48.86943,-23.181 -48.86943,-46.286c0.00001,-23.18 48.86943,-23.18 48.86943,-46.286c0,-23.18 -48.86943,-23.18 -48.86943,-46.285c0.00001,-23.1806 48.86943,-23.1806 48.86943,-46.286c0,-23.1803 -66.58456,-55.8879 -29.81032,-60.91404c163.4682,-22.58026 172.87616,29.63184 340.49818,29.63184c167.62202,0 167.50005,-30.00693 335.12207,-30.00693c167.50005,0 167.50005,30.00693 335.12207,30.00693c167.499,0 167.499,-30.00693 335.11998,-30.00693c167.5063,0 167.5063,30.00693 335.12728,30.00693c167.49588,0 167.49588,-30.00693 335.11686,-30.00693c167.62098,0 166.28652,7.05163 329.74773,29.63183c36.78112,5.1012 29.81689,8.552 29.81689,31.6573c0,23.1804 -48.87468,23.1804 -48.87468,46.286c0,23.18 48.87468,23.18 48.87468,46.285c0,23.181 -48.87468,23.181 -48.87468,46.286c0,23.18 48.87468,23.18 48.87468,46.286c0,23.18 -57.42358,27.531 -48.1449,49.961c13.43845,32.483 65.8578,52.137 29.07668,57.239z"/>
  <path stroke="null" id="svg_3" fill="#E7F7FF" d="m2318.59193,1145.34c-161.94503,22.58 -171.27193,-29.63 -337.33814,-29.63c-165.94227,0 -165.94227,30.01 -332.00849,30.01c-165.9526,0 -165.9526,-30.01 -332.01882,-30.01c-165.94227,0 -165.94227,30.01 -332.01159,30.01c-165.9464,0 -165.9464,-30.01 -332.01366,-30.01c-165.9464,0 -165.9464,30.01 -332.01366,30.01c-165.9464,0 -164.73587,-7.05 -326.68834,-29.63c-36.43318,-5.1 -29.53387,-8.55 -29.53387,-31.66c0,-23.18 48.41613,-23.18 48.41613,-46.29c0,-23.18 -48.41614,-23.18 -48.41614,-46.282c0.00001,-23.18 48.41614,-23.18 48.41614,-46.285c0,-23.181 -48.41614,-23.181 -48.41614,-46.286c0.00001,-23.18 48.41614,-23.18 48.41614,-46.286c0,-23.18 -65.96696,-55.888 -29.53382,-60.914c161.95195,-22.58 171.27265,29.632 337.3399,29.632c166.06725,0 165.9464,-30.007 332.01366,-30.007c165.9464,0 165.9464,30.007 332.01366,30.007c165.94537,0 165.94537,-30.007 332.01159,-30.007c165.9526,0 165.9526,30.007 332.01882,30.007c165.94227,0 165.94227,-30.007 332.00849,-30.007c166.06622,0 164.74413,7.052 326.68917,29.632c36.43996,5.101 29.54033,8.552 29.54033,31.657c0,23.181 -48.42135,23.181 -48.42135,46.286c0,23.18 48.42135,23.18 48.42135,46.286c0,23.18 -48.42135,23.18 -48.42135,46.285c0,23.182 48.42135,23.182 48.42135,46.282c0,23.18 -56.89095,27.54 -47.69833,49.97c13.3138,32.48 65.24694,52.13 28.80698,57.23z"/>
 </g>
</svg>