<svg width="538" height="1349" viewBox="0 0 538 1349" fill="none" xmlns="http://www.w3.org/2000/svg">
<mask id="mask0" mask-type="alpha" maskUnits="userSpaceOnUse" x="-483" y="267" width="692" height="814">
<path fill-rule="evenodd" clip-rule="evenodd" d="M-439.134 635.712C-432.8 558.311 -369.023 504.331 -313.267 450.239C-248.025 386.945 -187.019 299.397 -96.1482 302.967C-2.73049 306.638 67.0497 388.745 117.849 467.178C163.567 537.765 183.667 623.455 164.435 705.299C147.013 779.437 76.8103 819.75 22.4576 873.128C-43.5641 937.966 -89.6766 1055.12 -181.728 1045.25C-273.747 1035.39 -295.427 912.085 -344.652 833.767C-385.119 769.382 -445.334 711.482 -439.134 635.712Z" fill="#E7F7FF"/>
</mask>
<g mask="url(#mask0)">
<rect x="-599.062" y="605.232" width="732.393" height="707.556" transform="rotate(-38.4233 -599.062 605.232)" fill="#59BBF2"/>
</g>
</svg>
