<svg width="1920" height="363" viewBox="0 0 1920 363" fill="none" xmlns="http://www.w3.org/2000/svg">
<path d="M2134.37 357.36C1978.87 379.842 1969.92 327.857 1810.47 327.857C1651.13 327.857 1651.13 357.733 1491.68 357.733C1332.35 357.733 1332.35 327.857 1172.89 327.857C1013.56 327.857 1013.56 357.733 854.106 357.733C694.771 357.733 694.771 327.857 535.319 327.857C375.983 327.857 375.983 357.733 216.531 357.733C57.1955 357.733 58.3577 350.712 -97.1428 328.23C-132.125 323.151 -125.5 319.715 -125.5 296.711C-125.5 273.631 -79.0127 273.631 -79.0127 250.626C-79.0127 227.547 -125.5 227.547 -125.5 204.542C-125.5 181.463 -79.0127 181.463 -79.0127 158.458C-79.0127 135.378 -125.5 135.378 -125.5 112.374C-125.5 89.2941 -79.0127 89.2941 -79.0127 66.2893C-79.0127 43.2098 -142.352 10.6446 -107.37 5.64031C48.1304 -16.8416 57.0793 35.1432 216.531 35.1432C375.983 35.1432 375.867 5.26685 535.319 5.26685C694.654 5.26685 694.654 35.1432 854.106 35.1432C1013.44 35.1432 1013.44 5.26685 1172.89 5.26685C1332.23 5.26685 1332.23 35.1432 1491.68 35.1432C1651.02 35.1432 1651.02 5.26685 1810.47 5.26685C1969.92 5.26685 1968.64 12.2878 2124.14 34.7697C2159.12 39.8487 2152.5 43.2845 2152.5 66.2893C2152.5 89.3688 2106.01 89.3688 2106.01 112.374C2106.01 135.453 2152.5 135.453 2152.5 158.458C2152.5 181.537 2106.01 181.537 2106.01 204.542C2106.01 227.622 2152.5 227.622 2152.5 250.626C2152.5 273.706 2097.88 278.038 2106.71 300.371C2119.49 332.712 2169.35 352.281 2134.37 357.36Z" fill="#E7F7FF"/>
</svg>
