<svg width="680" height="796" viewBox="0 0 680 796" fill="none" xmlns="http://www.w3.org/2000/svg">
<g filter="url(#filter0_d)">
<mask id="mask0" mask-type="alpha" maskUnits="userSpaceOnUse" x="11" y="10" width="657" height="777">
<path fill-rule="evenodd" clip-rule="evenodd" d="M45.5471 422.412C36.0264 347.806 85.6285 283.871 127.61 221.438C176.732 148.384 216.977 53.1997 303.792 38.3594C393.039 23.1031 475.621 86.9045 539.482 151.031C596.954 208.743 633.182 285.902 631.373 367.305C629.734 441.044 571.302 493.318 530.509 554.793C480.957 629.466 460.761 749.719 371.564 758.827C282.399 767.933 237.131 655.452 174.785 591.119C123.532 538.23 54.8672 495.447 45.5471 422.412Z" fill="#59BBF2"/>
</mask>
<g mask="url(#mask0)">
<rect x="-74.8662" y="440.2" width="626.151" height="578.387" transform="rotate(-50.3739 -74.8662 440.2)" fill="#59BBF2"/>
</g>
</g>
<defs>
<filter id="filter0_d" x="7.87891" y="10.0811" width="663.485" height="784.205" filterUnits="userSpaceOnUse" color-interpolation-filters="sRGB">
<feFlood flood-opacity="0" result="BackgroundImageFix"/>
<feColorMatrix in="SourceAlpha" type="matrix" values="0 0 0 0 0 0 0 0 0 0 0 0 0 0 0 0 0 0 127 0"/>
<feOffset dy="4"/>
<feGaussianBlur stdDeviation="2"/>
<feColorMatrix type="matrix" values="0 0 0 0 0 0 0 0 0 0 0 0 0 0 0 0 0 0 0.25 0"/>
<feBlend mode="normal" in2="BackgroundImageFix" result="effect1_dropShadow"/>
<feBlend mode="normal" in="SourceGraphic" in2="effect1_dropShadow" result="shape"/>
</filter>
</defs>
</svg>
