<svg width="577" height="1349" viewBox="0 0 577 1349" fill="none" xmlns="http://www.w3.org/2000/svg">
<g filter="url(#filter0_d)">
<mask id="mask0" mask-type="alpha" maskUnits="userSpaceOnUse" x="328" y="267" width="692" height="814">
<path fill-rule="evenodd" clip-rule="evenodd" d="M371.866 635.712C378.2 558.311 441.977 504.331 497.733 450.239C562.975 386.945 623.981 299.397 714.852 302.967C808.27 306.638 878.05 388.745 928.849 467.178C974.567 537.765 994.667 623.455 975.435 705.299C958.013 779.437 887.81 819.75 833.458 873.128C767.436 937.966 721.323 1055.12 629.272 1045.25C537.253 1035.39 515.573 912.085 466.348 833.767C425.881 769.382 365.666 711.482 371.866 635.712Z" fill="#59BBF2"/>
</mask>
<g mask="url(#mask0)">
<rect x="211.961" y="605.293" width="732.393" height="707.556" transform="rotate(-38.4233 211.961 605.293)" fill="#59BBF2"/>
</g>
</g>
<defs>
<filter id="filter0_d" x="324.562" y="267.831" width="699.102" height="820.563" filterUnits="userSpaceOnUse" color-interpolation-filters="sRGB">
<feFlood flood-opacity="0" result="BackgroundImageFix"/>
<feColorMatrix in="SourceAlpha" type="matrix" values="0 0 0 0 0 0 0 0 0 0 0 0 0 0 0 0 0 0 127 0"/>
<feOffset dy="4"/>
<feGaussianBlur stdDeviation="2"/>
<feColorMatrix type="matrix" values="0 0 0 0 0 0 0 0 0 0 0 0 0 0 0 0 0 0 0.25 0"/>
<feBlend mode="normal" in2="BackgroundImageFix" result="effect1_dropShadow"/>
<feBlend mode="normal" in="SourceGraphic" in2="effect1_dropShadow" result="shape"/>
</filter>
</defs>
</svg>
