<svg width="320" height="75" viewBox="0 0 320 75" fill="none" xmlns="http://www.w3.org/2000/svg">
<path fill-rule="evenodd" clip-rule="evenodd" d="M320 0H0V74.2042C15.8302 69.1828 32.212 64.867 48.4758 60.5823C63.1485 56.7168 77.7252 52.8766 91.7142 48.5664C97.4064 46.8125 103.125 45.0096 108.862 43.2006C166.614 24.9916 226.316 6.1677 281.041 30.6078C296.485 37.5046 309.151 47.2973 320 59.0092V0Z" fill="white"/>
<path fill-rule="evenodd" clip-rule="evenodd" d="M307.438 16.4188C311.879 18.7925 316.057 21.4042 320 24.2302V59.0092C309.151 47.2973 296.485 37.5046 281.041 30.6078C226.316 6.1677 166.614 24.9916 108.862 43.2006C103.125 45.0096 97.4064 46.8125 91.7142 48.5664C77.7252 52.8766 63.1485 56.7168 48.4758 60.5823C32.212 64.867 15.8301 69.1828 0 74.2042V46.4403C23.0542 39.3518 47.8593 34.6534 72.4011 30.0048C87.3706 27.1693 102.242 24.3524 116.559 21.023C122.384 19.6683 128.239 18.2662 134.114 16.8594L134.114 16.8594C193.247 2.69877 254.377 -11.94 307.438 16.4188Z" fill="#FFD155"/>
</svg>
