<svg width="900" height="741" viewBox="0 0 900 741" fill="none" xmlns="http://www.w3.org/2000/svg">
<path fill-rule="evenodd" clip-rule="evenodd" d="M899.021 0H0.0214844V741H201.376C115.459 664.767 37.1787 568.32 45.6523 456.265C53.1094 357.659 137.264 294.385 219.131 232.83C238.31 218.41 257.362 204.083 275.275 189.42C282.563 183.454 289.861 177.399 297.183 171.325C370.884 110.18 447.073 46.9712 541.786 50.1118C619.716 52.6963 677.76 105.438 736.34 158.666C754.38 175.058 772.471 191.496 791.209 206.53C818.557 228.471 851.024 248.033 883.517 267.608L883.587 267.651C888.738 270.754 893.891 273.858 899.022 276.972L899.021 0Z" fill="white"/>
<path fill-rule="evenodd" clip-rule="evenodd" d="M884.718 203.884C889.466 212.247 894.218 220.619 899.022 228.943V741L899.021 276.973C893.866 273.845 888.691 270.727 883.516 267.609C851.024 248.033 818.555 228.471 791.208 206.53C772.47 191.497 754.38 175.059 736.34 158.667L736.339 158.667C677.759 105.438 619.715 52.6968 541.785 50.1124C447.072 46.9715 370.883 110.181 297.182 171.325C289.86 177.4 282.563 183.454 275.274 189.421C257.362 204.084 238.309 218.41 219.13 232.83L219.13 232.83C137.263 294.385 53.1086 357.659 45.6518 456.266C37.178 568.32 115.458 664.767 201.374 741H148.753C135.613 724.732 123.384 707.648 112.141 689.878C34.7232 567.522 -35.5598 416.059 19.8321 282.135C63.4869 176.588 178.584 137.403 290.553 99.2834L290.553 99.2832C316.784 90.3531 342.842 81.4814 367.771 71.8286C377.914 67.9009 388.098 63.8805 398.317 59.8465L398.318 59.846C501.179 19.2397 607.514 -22.7379 710.303 14.7704C794.878 45.6321 839.591 124.394 884.717 203.883L884.718 203.884Z" fill="#FFD155"/>
</svg>
