<svg width="68" height="68" viewBox="0 0 68 68" fill="none" xmlns="http://www.w3.org/2000/svg">
<path d="M30 30.5769L32.4175 33L37.195 27" stroke="#FFD155" stroke-width="3" stroke-miterlimit="10" stroke-linecap="round" stroke-linejoin="round"/>
<path d="M39 2H7C4.23858 2 2 4.23858 2 7V36.3403C2 36.3714 2.02519 36.3966 2.05627 36.3966V36.3966C2.08488 36.3966 2.10893 36.418 2.11225 36.4464C3.78637 50.7623 25.1584 62.6071 31.9156 66.0133C33.2015 66.6615 34.697 66.6616 35.983 66.0138C42.7434 62.6083 64.1297 50.763 65.7861 36.4465C65.7894 36.418 65.8134 36.3966 65.8421 36.3966V36.3966C65.8731 36.3966 65.8983 36.3714 65.8983 36.3403V7C65.8983 4.23857 63.6597 2 60.8983 2H56" stroke="#59BBF2" stroke-width="3" stroke-linecap="round" stroke-linejoin="round"/>
<path d="M20.5563 36.0456C19.1913 32.6229 19.1339 28.8174 20.3952 25.3551C21.6564 21.8928 24.1479 19.0159 27.3946 17.2731C30.6412 15.5302 34.4158 15.0434 37.9984 15.9055C41.581 16.7675 44.721 18.9182 46.8194 21.9472C48.9178 24.9762 49.8279 28.6717 49.376 32.3287C48.9241 35.9858 47.1419 39.3485 44.3693 41.7757C41.5967 44.2028 38.0277 45.5244 34.343 45.4885C30.6583 45.4526 27.1157 44.0616 24.3909 41.5809" stroke="#FFD155" stroke-width="3" stroke-linecap="round" stroke-linejoin="round"/>
</svg>
