<svg width="69" height="69" viewBox="0 0 69 69" fill="none" xmlns="http://www.w3.org/2000/svg">
<path d="M30 34.4429L32.4175 36.866L37.195 30.866" stroke="#FFD155" stroke-width="3" stroke-miterlimit="10" stroke-linecap="round" stroke-linejoin="round"/>
<path d="M20.5563 40.0458C19.1913 36.6231 19.1339 32.8177 20.3952 29.3554C21.6564 25.8931 24.1479 23.0161 27.3946 21.2733C30.6412 19.5304 34.4158 19.0436 37.9984 19.9057C41.581 20.7678 44.721 22.9184 46.8194 25.9474C48.9178 28.9765 49.8279 32.6719 49.376 36.329C48.9241 39.986 47.1419 43.3488 44.3693 45.7759C41.5967 48.203 38.0277 49.5247 34.343 49.4887C30.6583 49.4528 27.1157 48.0618 24.3909 45.5811" stroke="#FFD155" stroke-width="3" stroke-linecap="round" stroke-linejoin="round"/>
<path d="M2 55.2551V61.9999C2 64.7614 4.23858 66.9999 7 66.9999H61.988C64.7494 66.9999 66.988 64.7614 66.988 61.9999V55.2551" stroke="#59BBF2" stroke-width="3" stroke-linecap="round" stroke-linejoin="round"/>
<path d="M66.9883 13.7449L66.9883 7.00005C66.9883 4.23863 64.7497 2.00005 61.9883 2.00005L7.00028 2.00005C4.23885 2.00005 2.00028 4.23863 2.00028 7.00005L2.00028 13.7449" stroke="#59BBF2" stroke-width="3" stroke-linecap="round" stroke-linejoin="round"/>
</svg>
