<svg width="69" height="69" viewBox="0 0 69 69" fill="none" xmlns="http://www.w3.org/2000/svg">
<path d="M30 2H7C4.23858 2 2 4.23858 2 7V29.5M54.5 2H62C64.7614 2 67 4.23858 67 7V62C67 64.7614 64.7614 67 62 67H54.5M2 54V62C2 64.7614 4.23858 67 7 67H30" stroke="#59BBF2" stroke-width="3" stroke-linecap="round" stroke-linejoin="round"/>
<path d="M14 30L17.3941 38.6059L26 42L17.3941 45.3941L14 54L10.6059 45.3941L2 42L10.6059 38.6059L14 30Z" fill="#FFD155"/>
<path d="M43.5 1L46.4698 8.53015L54 11.5L46.4698 14.4698L43.5 22L40.5302 14.4698L33 11.5L40.5302 8.53015L43.5 1Z" fill="#FFD155"/>
<path d="M42.5 50L44.9042 56.0958L51 58.5L44.9042 60.9042L42.5 67L40.0958 60.9042L34 58.5L40.0958 56.0958L42.5 50Z" fill="#FFD155"/>
</svg>
