<svg width="87" height="65" viewBox="0 0 87 65" fill="none" xmlns="http://www.w3.org/2000/svg">
<g clip-path="url(#clip0)">
<path d="M79.3854 35.4L83.4898 37.7999C85.1916 38.7999 85.1916 40.2999 83.4898 41.2999L46.1495 62.7999C44.4477 63.7999 41.7448 63.7999 40.0429 62.7999L2.80274 41.2999C1.10091 40.2999 1.10091 38.7999 2.80274 37.7999L7.2075 35.2" stroke="#FFD155" stroke-width="3" stroke-linecap="round" stroke-linejoin="round"/>
<path d="M40.143 2.19995C41.8449 1.19995 44.5478 1.19995 46.2496 2.19995L83.5899 23.7C85.2917 24.7 85.2917 26.2 83.5899 27.2L46.1495 48.7999C44.4477 49.7999 41.7448 49.7999 40.0429 48.7999L2.80274 27.2999C1.10091 26.2999 1.10091 24.7999 2.80274 23.7999L32.2345 6.79995L40.143 2.19995Z" stroke="#59BBF2" stroke-width="3" stroke-linecap="round" stroke-linejoin="round"/>
</g>
<defs>
<clipPath id="clip0">
<rect width="86.2931" height="65" fill="white"/>
</clipPath>
</defs>
</svg>
