<svg width="65" height="65" viewBox="0 0 65 65" fill="none" xmlns="http://www.w3.org/2000/svg">
<g clip-path="url(#clip0)">
<path d="M40.3747 53.3118L32.9167 58.9054L40.3747 64.4989V60.9366V60.6866H40.6247H62.9679C63.5942 60.6866 64.1752 60.3577 64.497 59.8203L64.497 59.8202C64.8187 59.2831 64.8345 58.6171 64.5387 58.0634L40.3747 53.3118ZM40.3747 53.3118V56.8742V57.1242H40.6247H59.576H59.9936L59.7963 56.7561L52.5386 43.2114C52.0822 42.3596 52.4027 41.299 53.2544 40.8425L53.3111 40.8121L53.193 40.5917L53.3111 40.8121C54.1631 40.3554 55.224 40.676 55.6804 41.5281L64.5386 58.0632L40.3747 53.3118Z" fill="#59BBF2" stroke="white" stroke-width="0.5"/>
<path d="M16.4267 36.3402L16.206 36.2211L16.0876 36.4421L5.2036 56.7565L5.00639 57.1245H5.42396H26.4376C27.4041 57.1245 28.1876 57.908 28.1876 58.8745V58.9369C28.1876 59.9034 27.4041 60.6869 26.4376 60.6869H2.03201C1.40572 60.6869 0.824745 60.358 0.502955 59.8206C0.181193 59.2833 0.165392 58.617 0.461296 58.0635L12.9513 34.7488L13.069 34.5291L12.8497 34.4107L9.64389 32.6812L18.1081 28.7732L19.4897 37.9927L16.4267 36.3402Z" fill="#59BBF2" stroke="white" stroke-width="0.5"/>
<path d="M52.4646 27.063L50.5394 36.1847L42.3217 31.7824L45.3599 30.3687L45.5997 30.2571L45.4748 30.024L32.7188 6.21444L32.4984 5.80304L32.2781 6.21448L23.0468 23.4516C22.5904 24.3038 21.5294 24.6245 20.6774 24.1678L20.6207 24.1374C19.769 23.6809 19.4485 22.6205 19.9048 21.7687L30.9276 1.19191L30.9277 1.19183C31.2378 0.612399 31.8711 0.249774 32.5 0.250734C33.1268 0.251695 33.7583 0.614279 34.0695 1.19034C34.0695 1.19045 34.0696 1.19057 34.0696 1.19069L48.7249 28.5429L48.8365 28.7512L49.0507 28.6515L52.4646 27.063Z" fill="#FFD155" stroke="white" stroke-width="0.5"/>
</g>
<defs>
<clipPath id="clip0">
<rect width="65" height="65" fill="white"/>
</clipPath>
</defs>
</svg>
