<svg width="69" height="69" viewBox="0 0 69 69" fill="none" xmlns="http://www.w3.org/2000/svg">
<mask id="path-1-outside-1" maskUnits="userSpaceOnUse" x="13" y="14" width="42" height="42" fill="black">
<rect fill="white" x="13" y="14" width="42" height="42"/>
<path d="M51.9407 30.5556H48.1985C47.597 30.5556 47.1015 30.2244 46.8711 29.6689C46.6407 29.1133 46.7578 28.5281 47.1822 28.103L49.8281 25.4578C50.217 25.0689 50.4311 24.5511 50.4311 24.0015C50.4311 23.4511 50.217 22.9341 49.8281 22.5444L46.4556 19.1719C45.6778 18.3941 44.3215 18.3926 43.5422 19.1719L40.897 21.817C40.4719 22.2415 39.8852 22.36 39.3311 22.1289C38.7756 21.8985 38.4444 21.403 38.4444 20.8015V17.0593C38.4444 15.9237 37.5207 15 36.3852 15H31.6148C30.4793 15 29.5556 15.9237 29.5556 17.0593V20.8015C29.5556 21.403 29.2244 21.8985 28.6689 22.1289C28.1148 22.3607 27.5281 22.2415 27.103 21.817L24.4578 19.1719C23.6785 18.3926 22.3222 18.3941 21.5444 19.1719L18.1719 22.5444C17.783 22.9333 17.5689 23.4511 17.5689 24.0015C17.5689 24.5511 17.783 25.0681 18.1719 25.4578L20.8178 28.103C21.2422 28.5281 21.3585 29.1133 21.1289 29.6689C20.8993 30.2244 20.403 30.5556 19.8015 30.5556H16.0593C14.9237 30.5556 14 31.4793 14 32.6148V37.3844C14 38.5207 14.9237 39.4444 16.0593 39.4444H19.8015C20.403 39.4444 20.8985 39.7756 21.1289 40.3311C21.3593 40.8867 21.2422 41.4719 20.8178 41.897L18.1719 44.5422C17.783 44.9311 17.5689 45.4489 17.5689 45.9985C17.5689 46.5489 17.783 47.0659 18.1719 47.4556L21.5444 50.8281C22.323 51.6067 23.6785 51.6081 24.4578 50.8281L27.103 48.1822C27.5281 47.7578 28.1126 47.6407 28.6689 47.8711C29.2244 48.1015 29.5556 48.597 29.5556 49.1985V52.9407C29.5556 54.0763 30.4793 55 31.6148 55H36.3844C37.52 55 38.4437 54.0763 38.4437 52.9407V49.1985C38.4437 48.597 38.7748 48.1015 39.3304 47.8711C39.8867 47.64 40.4711 47.7578 40.8963 48.1822L43.5415 50.8281C44.3207 51.6074 45.677 51.6059 46.4548 50.8281L49.8274 47.4556C50.2163 47.0667 50.4304 46.5489 50.4304 45.9985C50.4304 45.4489 50.2163 44.9319 49.8274 44.5422L47.1815 41.897C46.757 41.4719 46.6407 40.8867 46.8704 40.3311C47.1 39.7756 47.597 39.4444 48.1985 39.4444H51.9407C53.0763 39.4444 54 38.5207 54 37.3852V32.6148C54 31.4793 53.0763 30.5556 51.9407 30.5556ZM52.5185 37.3852C52.5185 37.7037 52.2593 37.963 51.9407 37.963H48.1985C46.9956 37.963 45.9622 38.6533 45.5022 39.7644C45.0415 40.8756 45.2837 42.0948 46.1348 42.9452L48.7807 45.5904C49.0067 45.8163 49.0067 46.183 48.7807 46.4081L45.4081 49.7807C45.183 50.0059 44.8163 50.0074 44.5904 49.7807L41.9452 47.1348C41.0941 46.2837 39.8756 46.043 38.7644 46.5022C37.6533 46.9622 36.963 47.9956 36.963 49.1985V52.9407C36.963 53.2593 36.7037 53.5185 36.3852 53.5185H31.6148C31.2963 53.5185 31.037 53.2593 31.037 52.9407V49.1985C31.037 47.9956 30.3467 46.9622 29.2356 46.5022C28.863 46.3474 28.4793 46.2719 28.1 46.2719C27.3489 46.2719 26.6207 46.5681 26.0548 47.1341L23.4096 49.78C23.183 50.0067 22.8163 50.0052 22.5919 49.78L19.2193 46.4074C18.9933 46.1815 18.9933 45.8148 19.2193 45.5896L21.8652 42.9444C22.7156 42.0941 22.9585 40.8748 22.4978 39.7637C22.0378 38.6533 21.0044 37.963 19.8015 37.963H16.0593C15.7407 37.963 15.4815 37.7037 15.4815 37.3852V32.6148C15.4815 32.2963 15.7407 32.037 16.0593 32.037H19.8015C21.0044 32.037 22.0378 31.3467 22.4978 30.2356C22.9585 29.1244 22.7163 27.9052 21.8652 27.0548L19.2193 24.4096C18.9933 24.1837 18.9933 23.817 19.2193 23.5919L22.5919 20.2193C22.817 19.9933 23.1837 19.9933 23.4096 20.2193L26.0548 22.8644C26.9044 23.7141 28.123 23.9578 29.2356 23.497C30.3467 23.0378 31.037 22.0044 31.037 20.8015V17.0593C31.037 16.7407 31.2963 16.4815 31.6148 16.4815H36.3844C36.7037 16.4815 36.963 16.7407 36.963 17.0593V20.8015C36.963 22.0044 37.6533 23.0378 38.7644 23.4978C39.877 23.9585 41.0948 23.7156 41.9452 22.8652L44.5904 20.22C44.817 19.9941 45.1837 19.9941 45.4081 20.22L48.7807 23.5926C49.0067 23.8185 49.0067 24.1852 48.7807 24.4104L46.1348 27.0556C45.2844 27.9059 45.0415 29.1252 45.5022 30.2363C45.9622 31.3474 46.9956 32.0378 48.1985 32.0378H51.9407C52.2593 32.037 52.5185 32.2963 52.5185 32.6148V37.3852Z"/>
</mask>
<path d="M51.9407 30.5556H48.1985C47.597 30.5556 47.1015 30.2244 46.8711 29.6689C46.6407 29.1133 46.7578 28.5281 47.1822 28.103L49.8281 25.4578C50.217 25.0689 50.4311 24.5511 50.4311 24.0015C50.4311 23.4511 50.217 22.9341 49.8281 22.5444L46.4556 19.1719C45.6778 18.3941 44.3215 18.3926 43.5422 19.1719L40.897 21.817C40.4719 22.2415 39.8852 22.36 39.3311 22.1289C38.7756 21.8985 38.4444 21.403 38.4444 20.8015V17.0593C38.4444 15.9237 37.5207 15 36.3852 15H31.6148C30.4793 15 29.5556 15.9237 29.5556 17.0593V20.8015C29.5556 21.403 29.2244 21.8985 28.6689 22.1289C28.1148 22.3607 27.5281 22.2415 27.103 21.817L24.4578 19.1719C23.6785 18.3926 22.3222 18.3941 21.5444 19.1719L18.1719 22.5444C17.783 22.9333 17.5689 23.4511 17.5689 24.0015C17.5689 24.5511 17.783 25.0681 18.1719 25.4578L20.8178 28.103C21.2422 28.5281 21.3585 29.1133 21.1289 29.6689C20.8993 30.2244 20.403 30.5556 19.8015 30.5556H16.0593C14.9237 30.5556 14 31.4793 14 32.6148V37.3844C14 38.5207 14.9237 39.4444 16.0593 39.4444H19.8015C20.403 39.4444 20.8985 39.7756 21.1289 40.3311C21.3593 40.8867 21.2422 41.4719 20.8178 41.897L18.1719 44.5422C17.783 44.9311 17.5689 45.4489 17.5689 45.9985C17.5689 46.5489 17.783 47.0659 18.1719 47.4556L21.5444 50.8281C22.323 51.6067 23.6785 51.6081 24.4578 50.8281L27.103 48.1822C27.5281 47.7578 28.1126 47.6407 28.6689 47.8711C29.2244 48.1015 29.5556 48.597 29.5556 49.1985V52.9407C29.5556 54.0763 30.4793 55 31.6148 55H36.3844C37.52 55 38.4437 54.0763 38.4437 52.9407V49.1985C38.4437 48.597 38.7748 48.1015 39.3304 47.8711C39.8867 47.64 40.4711 47.7578 40.8963 48.1822L43.5415 50.8281C44.3207 51.6074 45.677 51.6059 46.4548 50.8281L49.8274 47.4556C50.2163 47.0667 50.4304 46.5489 50.4304 45.9985C50.4304 45.4489 50.2163 44.9319 49.8274 44.5422L47.1815 41.897C46.757 41.4719 46.6407 40.8867 46.8704 40.3311C47.1 39.7756 47.597 39.4444 48.1985 39.4444H51.9407C53.0763 39.4444 54 38.5207 54 37.3852V32.6148C54 31.4793 53.0763 30.5556 51.9407 30.5556ZM52.5185 37.3852C52.5185 37.7037 52.2593 37.963 51.9407 37.963H48.1985C46.9956 37.963 45.9622 38.6533 45.5022 39.7644C45.0415 40.8756 45.2837 42.0948 46.1348 42.9452L48.7807 45.5904C49.0067 45.8163 49.0067 46.183 48.7807 46.4081L45.4081 49.7807C45.183 50.0059 44.8163 50.0074 44.5904 49.7807L41.9452 47.1348C41.0941 46.2837 39.8756 46.043 38.7644 46.5022C37.6533 46.9622 36.963 47.9956 36.963 49.1985V52.9407C36.963 53.2593 36.7037 53.5185 36.3852 53.5185H31.6148C31.2963 53.5185 31.037 53.2593 31.037 52.9407V49.1985C31.037 47.9956 30.3467 46.9622 29.2356 46.5022C28.863 46.3474 28.4793 46.2719 28.1 46.2719C27.3489 46.2719 26.6207 46.5681 26.0548 47.1341L23.4096 49.78C23.183 50.0067 22.8163 50.0052 22.5919 49.78L19.2193 46.4074C18.9933 46.1815 18.9933 45.8148 19.2193 45.5896L21.8652 42.9444C22.7156 42.0941 22.9585 40.8748 22.4978 39.7637C22.0378 38.6533 21.0044 37.963 19.8015 37.963H16.0593C15.7407 37.963 15.4815 37.7037 15.4815 37.3852V32.6148C15.4815 32.2963 15.7407 32.037 16.0593 32.037H19.8015C21.0044 32.037 22.0378 31.3467 22.4978 30.2356C22.9585 29.1244 22.7163 27.9052 21.8652 27.0548L19.2193 24.4096C18.9933 24.1837 18.9933 23.817 19.2193 23.5919L22.5919 20.2193C22.817 19.9933 23.1837 19.9933 23.4096 20.2193L26.0548 22.8644C26.9044 23.7141 28.123 23.9578 29.2356 23.497C30.3467 23.0378 31.037 22.0044 31.037 20.8015V17.0593C31.037 16.7407 31.2963 16.4815 31.6148 16.4815H36.3844C36.7037 16.4815 36.963 16.7407 36.963 17.0593V20.8015C36.963 22.0044 37.6533 23.0378 38.7644 23.4978C39.877 23.9585 41.0948 23.7156 41.9452 22.8652L44.5904 20.22C44.817 19.9941 45.1837 19.9941 45.4081 20.22L48.7807 23.5926C49.0067 23.8185 49.0067 24.1852 48.7807 24.4104L46.1348 27.0556C45.2844 27.9059 45.0415 29.1252 45.5022 30.2363C45.9622 31.3474 46.9956 32.0378 48.1985 32.0378H51.9407C52.2593 32.037 52.5185 32.2963 52.5185 32.6148V37.3852Z" fill="#FFD155"/>
<path d="M51.9407 30.5556H48.1985C47.597 30.5556 47.1015 30.2244 46.8711 29.6689C46.6407 29.1133 46.7578 28.5281 47.1822 28.103L49.8281 25.4578C50.217 25.0689 50.4311 24.5511 50.4311 24.0015C50.4311 23.4511 50.217 22.9341 49.8281 22.5444L46.4556 19.1719C45.6778 18.3941 44.3215 18.3926 43.5422 19.1719L40.897 21.817C40.4719 22.2415 39.8852 22.36 39.3311 22.1289C38.7756 21.8985 38.4444 21.403 38.4444 20.8015V17.0593C38.4444 15.9237 37.5207 15 36.3852 15H31.6148C30.4793 15 29.5556 15.9237 29.5556 17.0593V20.8015C29.5556 21.403 29.2244 21.8985 28.6689 22.1289C28.1148 22.3607 27.5281 22.2415 27.103 21.817L24.4578 19.1719C23.6785 18.3926 22.3222 18.3941 21.5444 19.1719L18.1719 22.5444C17.783 22.9333 17.5689 23.4511 17.5689 24.0015C17.5689 24.5511 17.783 25.0681 18.1719 25.4578L20.8178 28.103C21.2422 28.5281 21.3585 29.1133 21.1289 29.6689C20.8993 30.2244 20.403 30.5556 19.8015 30.5556H16.0593C14.9237 30.5556 14 31.4793 14 32.6148V37.3844C14 38.5207 14.9237 39.4444 16.0593 39.4444H19.8015C20.403 39.4444 20.8985 39.7756 21.1289 40.3311C21.3593 40.8867 21.2422 41.4719 20.8178 41.897L18.1719 44.5422C17.783 44.9311 17.5689 45.4489 17.5689 45.9985C17.5689 46.5489 17.783 47.0659 18.1719 47.4556L21.5444 50.8281C22.323 51.6067 23.6785 51.6081 24.4578 50.8281L27.103 48.1822C27.5281 47.7578 28.1126 47.6407 28.6689 47.8711C29.2244 48.1015 29.5556 48.597 29.5556 49.1985V52.9407C29.5556 54.0763 30.4793 55 31.6148 55H36.3844C37.52 55 38.4437 54.0763 38.4437 52.9407V49.1985C38.4437 48.597 38.7748 48.1015 39.3304 47.8711C39.8867 47.64 40.4711 47.7578 40.8963 48.1822L43.5415 50.8281C44.3207 51.6074 45.677 51.6059 46.4548 50.8281L49.8274 47.4556C50.2163 47.0667 50.4304 46.5489 50.4304 45.9985C50.4304 45.4489 50.2163 44.9319 49.8274 44.5422L47.1815 41.897C46.757 41.4719 46.6407 40.8867 46.8704 40.3311C47.1 39.7756 47.597 39.4444 48.1985 39.4444H51.9407C53.0763 39.4444 54 38.5207 54 37.3852V32.6148C54 31.4793 53.0763 30.5556 51.9407 30.5556ZM52.5185 37.3852C52.5185 37.7037 52.2593 37.963 51.9407 37.963H48.1985C46.9956 37.963 45.9622 38.6533 45.5022 39.7644C45.0415 40.8756 45.2837 42.0948 46.1348 42.9452L48.7807 45.5904C49.0067 45.8163 49.0067 46.183 48.7807 46.4081L45.4081 49.7807C45.183 50.0059 44.8163 50.0074 44.5904 49.7807L41.9452 47.1348C41.0941 46.2837 39.8756 46.043 38.7644 46.5022C37.6533 46.9622 36.963 47.9956 36.963 49.1985V52.9407C36.963 53.2593 36.7037 53.5185 36.3852 53.5185H31.6148C31.2963 53.5185 31.037 53.2593 31.037 52.9407V49.1985C31.037 47.9956 30.3467 46.9622 29.2356 46.5022C28.863 46.3474 28.4793 46.2719 28.1 46.2719C27.3489 46.2719 26.6207 46.5681 26.0548 47.1341L23.4096 49.78C23.183 50.0067 22.8163 50.0052 22.5919 49.78L19.2193 46.4074C18.9933 46.1815 18.9933 45.8148 19.2193 45.5896L21.8652 42.9444C22.7156 42.0941 22.9585 40.8748 22.4978 39.7637C22.0378 38.6533 21.0044 37.963 19.8015 37.963H16.0593C15.7407 37.963 15.4815 37.7037 15.4815 37.3852V32.6148C15.4815 32.2963 15.7407 32.037 16.0593 32.037H19.8015C21.0044 32.037 22.0378 31.3467 22.4978 30.2356C22.9585 29.1244 22.7163 27.9052 21.8652 27.0548L19.2193 24.4096C18.9933 24.1837 18.9933 23.817 19.2193 23.5919L22.5919 20.2193C22.817 19.9933 23.1837 19.9933 23.4096 20.2193L26.0548 22.8644C26.9044 23.7141 28.123 23.9578 29.2356 23.497C30.3467 23.0378 31.037 22.0044 31.037 20.8015V17.0593C31.037 16.7407 31.2963 16.4815 31.6148 16.4815H36.3844C36.7037 16.4815 36.963 16.7407 36.963 17.0593V20.8015C36.963 22.0044 37.6533 23.0378 38.7644 23.4978C39.877 23.9585 41.0948 23.7156 41.9452 22.8652L44.5904 20.22C44.817 19.9941 45.1837 19.9941 45.4081 20.22L48.7807 23.5926C49.0067 23.8185 49.0067 24.1852 48.7807 24.4104L46.1348 27.0556C45.2844 27.9059 45.0415 29.1252 45.5022 30.2363C45.9622 31.3474 46.9956 32.0378 48.1985 32.0378H51.9407C52.2593 32.037 52.5185 32.2963 52.5185 32.6148V37.3852Z" stroke="#FFD155" stroke-width="1.2" mask="url(#path-1-outside-1)"/>
<path d="M33.9997 28.0335C30.1577 28.0335 27.033 31.1582 27.033 35.0002C27.033 38.8421 30.1577 41.9668 33.9997 41.9668C37.8417 41.9668 40.9663 38.8421 40.9663 35.0002C40.9663 31.1582 37.8417 28.0335 33.9997 28.0335ZM33.9997 39.8854C31.3068 39.8854 29.1145 37.693 29.1145 35.0002C29.1145 32.3073 31.3068 30.115 33.9997 30.115C36.6925 30.115 38.8849 32.3073 38.8849 35.0002C38.8849 37.693 36.6925 39.8854 33.9997 39.8854Z" fill="#FFD155" stroke="#FFD155" stroke-width="0.6"/>
<path d="M2 55.2551V61.9999C2 64.7614 4.23858 66.9999 7 66.9999H61.988C64.7494 66.9999 66.988 64.7614 66.988 61.9999V55.2551" stroke="#59BBF2" stroke-width="3" stroke-linecap="round" stroke-linejoin="round"/>
<path d="M66.9883 13.7449L66.9883 7.00005C66.9883 4.23863 64.7497 2.00005 61.9883 2.00005L7.00028 2.00005C4.23885 2.00005 2.00028 4.23863 2.00028 7.00005L2.00028 13.7449" stroke="#59BBF2" stroke-width="3" stroke-linecap="round" stroke-linejoin="round"/>
</svg>
