<svg width="30" height="30" viewBox="0 0 30 30" fill="none" xmlns="http://www.w3.org/2000/svg">
<path d="M28.3395 18.3764H25.5166C25.0738 18.3764 24.6863 18.5978 24.5203 19.0406C24.3542 19.4834 24.4096 19.8708 24.7417 20.203L26.7343 22.1956C27.0111 22.4723 27.1771 22.8598 27.1771 23.3026C27.1771 23.69 27.0111 24.0775 26.7343 24.4096L24.1882 26.9557C23.6347 27.5646 22.583 27.5646 22.0295 26.9557L20.0369 24.9631C19.7048 24.631 19.262 24.5756 18.8745 24.7417C18.4317 24.9077 18.2103 25.2952 18.2103 25.738V28.4502C18.2657 29.3358 17.6015 30 16.7159 30H13.1734C12.2878 30 11.6236 29.3358 11.6236 28.4502V25.6273C11.6236 25.1845 11.4022 24.797 10.9594 24.631C10.572 24.4649 10.1292 24.5203 9.79705 24.8524L7.80443 26.845C7.19557 27.4539 6.19926 27.4539 5.64576 26.845L3.09963 24.2989C2.82288 24.0221 2.65683 23.6347 2.65683 23.1919C2.65683 22.8044 2.82288 22.417 3.09963 22.0849L5.09225 20.0923C5.42435 19.7601 5.4797 19.3173 5.31365 18.9299C5.1476 18.5424 4.76015 18.3764 4.31734 18.3764H1.54982C0.664207 18.3764 0 17.7122 0 16.8266V13.2841C0 12.3985 0.664207 11.7343 1.54982 11.7343H4.37269C4.8155 11.7343 5.20295 11.5129 5.369 11.0701C5.53506 10.6273 5.4797 10.2399 5.1476 9.90775L3.15498 7.91513C2.87823 7.63838 2.71218 7.25092 2.71218 6.80812C2.71218 6.42066 2.87823 6.03321 3.15498 5.70111L5.70111 3.15498C6.30996 2.54613 7.30627 2.54613 7.85978 3.15498L9.8524 5.1476C10.1845 5.4797 10.6273 5.53506 11.0148 5.369C11.4576 5.20295 11.679 4.8155 11.679 4.37269V1.54981C11.679 0.719557 12.3432 0 13.2288 0H16.7712C17.6015 0 18.321 0.664206 18.321 1.54981V4.37269C18.321 4.8155 18.5424 5.20295 18.9852 5.369C19.428 5.53506 19.8155 5.4797 20.1476 5.1476L22.1402 3.15498C22.7491 2.54613 23.7454 2.60148 24.2989 3.15498L26.845 5.70111C27.1218 5.97786 27.2878 6.36531 27.2878 6.80812C27.2878 7.19557 27.1218 7.58302 26.845 7.91513L24.8524 9.90775C24.5203 10.2399 24.4649 10.6827 24.631 11.0701C24.797 11.5129 25.1845 11.7343 25.6273 11.7343H28.4502C29.2804 11.7343 30 12.3985 30 13.2841V16.8266C29.8893 17.7122 29.2251 18.3764 28.3395 18.3764ZM18.8192 15.0554C18.8192 12.8967 17.1033 11.1808 14.9446 11.1808C12.786 11.1808 11.0701 12.8967 11.0701 15.0554C11.0701 17.214 12.786 18.9299 14.9446 18.9299C17.1033 18.9299 18.8192 17.214 18.8192 15.0554Z" fill="#FFD155"/>
</svg>
