<svg width="84" height="96" viewBox="0 0 84 96" fill="none" xmlns="http://www.w3.org/2000/svg">
<path d="M6.11133 19.2236V19.2236C6.11133 17.9184 7.16941 16.8604 8.47461 16.8604H64.5036C67.2651 16.8604 69.5036 19.0989 69.5036 21.8604V85.4045C69.5036 87.6159 67.7109 89.4086 65.4995 89.4086V89.4086" stroke="#59BBF2" stroke-width="3"/>
<path d="M58.3923 94.2635H5C3.067 94.2635 1.5 92.6964 1.5 90.7635V27.9722C1.5 26.0392 3.067 24.4722 5 24.4722H41.2048L61.8923 45.7681V90.7635C61.8923 92.6964 60.3253 94.2635 58.3923 94.2635Z" stroke="#FFD155" stroke-width="3"/>
<path d="M82.3822 12.9724C82.3822 7.62602 78.3067 3.30273 73.2669 3.30273H70.9336" stroke="#FFD155" stroke-width="2" stroke-linecap="round" stroke-linejoin="round"/>
<path d="M72.4577 1.22363L70 3.30277L72.4888 5.3159" stroke="#FFD155" stroke-width="2" stroke-linecap="round" stroke-linejoin="round"/>
</svg>
