<svg width="98" height="102" viewBox="0 0 98 102" fill="none" xmlns="http://www.w3.org/2000/svg">
<path d="M45.2305 47.3111C47.1619 46.2166 50.1877 46.2166 52.0547 47.3111L93.8367 71.3888C95.768 72.4833 95.768 74.1571 93.8367 75.3159L51.9903 99.4581C50.0589 100.553 47.0331 100.553 45.1661 99.4581L3.44853 75.3803C1.51716 74.2859 1.51716 72.612 3.44853 71.4532L36.4106 52.397L45.2305 47.3111Z" stroke="#59BBF2" stroke-width="3" stroke-linecap="round" stroke-linejoin="round"/>
<path d="M84.2072 26.2876L88.1084 36.1794L98.0003 40.0807L88.1084 43.982L84.2072 53.8738L80.3059 43.982L70.4141 40.0807L80.3059 36.1794L84.2072 26.2876Z" fill="#FFD155"/>
<path d="M65.4486 0.908203L68.1015 8.03032L74.828 10.8392L68.1015 13.6482L65.4486 20.7703L62.7958 13.6482L56.0693 10.8392L62.7958 8.03032L65.4486 0.908203Z" fill="#FFD155"/>
<path d="M57.724 57.1841L60.3769 63.9105L67.1033 66.5634L60.3769 69.2163L57.724 75.9427L55.0712 69.2163L48.3447 66.5634L55.0712 63.9105L57.724 57.1841Z" fill="#FFD155"/>
</svg>
