<svg width="99" height="88" viewBox="0 0 99 88" fill="none" xmlns="http://www.w3.org/2000/svg">
<path d="M45.4155 24.1845C47.2633 23.0986 50.198 23.0986 52.0457 24.1845L92.5881 47.5309C94.4358 48.6168 94.4358 50.2456 92.5881 51.3315L51.937 74.7865C50.0893 75.8723 47.1546 75.8723 45.3068 74.7865L4.87314 51.4401C3.02536 50.3542 3.02536 48.7254 4.87314 47.6395L36.8288 29.1796L45.4155 24.1845Z" stroke="#59BBF2" stroke-width="3" stroke-linecap="round" stroke-linejoin="round"/>
<path d="M45.7695 12.7988L47.9809 15.5718L50.1221 12.7637" stroke="#FFD155" stroke-width="2" stroke-linecap="round" stroke-linejoin="round"/>
<path d="M47.9805 15.5718L47.9805 1.60146" stroke="#FFD155" stroke-width="2" stroke-linecap="round" stroke-linejoin="round"/>
<path d="M93.6475 32.0737L95.8588 34.8467L98 32.0386" stroke="#FFD155" stroke-width="2" stroke-linecap="round" stroke-linejoin="round"/>
<path d="M95.8594 34.8472L95.8594 20.8768" stroke="#FFD155" stroke-width="2" stroke-linecap="round" stroke-linejoin="round"/>
<path d="M1 32.0737L3.21138 34.8467L5.35256 32.0386" stroke="#FFD155" stroke-width="2" stroke-linecap="round" stroke-linejoin="round"/>
<path d="M3.21094 34.8472L3.21094 20.8768" stroke="#FFD155" stroke-width="2" stroke-linecap="round" stroke-linejoin="round"/>
<path d="M92.185 58.2354C94.0244 59.3212 94.0244 60.95 92.185 62.0359L51.7179 85.4909C49.8784 86.5768 46.957 86.5768 45.1176 85.4909L4.86687 62.1445C3.02745 61.0586 3.02745 59.4298 4.86687 58.3439" stroke="#FFD155" stroke-width="3" stroke-linecap="round" stroke-linejoin="round"/>
</svg>
