<svg width="22" height="30" viewBox="0 0 22 30" fill="none" xmlns="http://www.w3.org/2000/svg">
<path d="M18.2688 0C18.2688 0 15.7987 2.39391 13.1328 3.36235C-6.63327 10.5114 1.70187 24.445 1.97391 24.4886C1.97391 24.4886 3.08381 22.5571 4.58 21.4581C14.0795 14.4723 16.0109 6.4309 16.0109 6.4309C16.0109 6.4309 13.8781 16.1099 5.42875 22.1273C3.56259 23.4548 2.29491 26.7301 1.76172 30C1.76172 30 3.08381 29.4668 3.65508 29.3199C3.87815 27.8727 4.34061 26.4853 5.12407 25.2448C16.9413 26.654 20.8096 17.1328 21.3156 13.8139C22.5071 5.97388 18.2688 0 18.2688 0Z" fill="#FFD155"/>
</svg>
