<svg width="80" height="40" viewBox="0 0 80 40" fill="none" xmlns="http://www.w3.org/2000/svg">
<g clip-path="url(#clip0)">
<path d="M42.9724 0H35.3037V40H57.7984L50.7972 32.9647H42.9439L42.9724 0Z" fill="white"/>
<path d="M79.2004 40H68.4501L48.54 19.9929L68.4359 0H79.2004L59.1909 20.107L79.2004 40Z" fill="white"/>
<path d="M25.0083 7.20656H30.9302V0.2854H5.35385C2.4 0.2854 0 2.68283 0 5.65108V18.0806C0 21.0489 2.4 23.4606 5.35385 23.4606H22.7219C23.7586 23.4606 24.5964 24.3025 24.5964 25.3443V30.6386C24.5964 31.6803 23.7586 32.5223 22.7219 32.5223H0V39.9857H25.8462C28.8994 39.9857 31.3846 37.4884 31.3846 34.4203V21.1202C31.3846 18.152 28.9846 15.7403 26.0308 15.7403H7.83905C6.80237 15.7403 5.9645 14.8983 5.9645 13.8566V9.09025C5.9645 8.04851 6.80237 7.20656 7.83905 7.20656H25.0083Z" fill="white"/>
<g clip-path="url(#clip1)">
<path d="M42.9724 0H35.3037V40H57.7984L50.7972 32.9647H42.9439L42.9724 0Z" fill="#204B67"/>
<path d="M79.2004 40H68.4501L48.54 19.9929L68.4359 0H79.2004L59.1909 20.107L79.2004 40Z" fill="#181817"/>
<path d="M25.0083 7.20656H30.9302V0.2854H5.35385C2.4 0.2854 0 2.68283 0 5.65108V18.0806C0 21.0489 2.4 23.4606 5.35385 23.4606H22.7219C23.7586 23.4606 24.5964 24.3025 24.5964 25.3443V30.6386C24.5964 31.6803 23.7586 32.5223 22.7219 32.5223H0V39.9857H25.8462C28.8994 39.9857 31.3846 37.4884 31.3846 34.4203V21.1202C31.3846 18.152 28.9846 15.7403 26.0308 15.7403H7.83905C6.80237 15.7403 5.9645 14.8983 5.9645 13.8566V9.09025C5.9645 8.04851 6.80237 7.20656 7.83905 7.20656H25.0083Z" fill="#59BBF2"/>
<g clip-path="url(#clip2)">
<path d="M43.1898 0H35.4824V40H58.0907L51.0542 32.9647H43.1612L43.1898 0Z" fill="url(#paint0_linear)"/>
<path d="M79.6003 40H68.7958L48.7852 19.9929L68.7815 0H79.6003L59.4898 20.107L79.6003 40Z" fill="url(#paint1_linear)"/>
<path d="M25.1346 7.20656H31.0864V0.2854H5.38089C2.41212 0.2854 0 2.68283 0 5.65108V18.0806C0 21.0489 2.41212 23.4606 5.38089 23.4606H22.8366C23.8786 23.4606 24.7207 24.3025 24.7207 25.3443V30.6386C24.7207 31.6803 23.8786 32.5223 22.8366 32.5223H0V39.9857H25.9767C29.0454 39.9857 31.5431 37.4884 31.5431 34.4203V21.1202C31.5431 18.152 29.131 15.7403 26.1622 15.7403H7.87864C6.83672 15.7403 5.99462 14.8983 5.99462 13.8566V9.09025C5.99462 8.04851 6.83672 7.20656 7.87864 7.20656H25.1346Z" fill="url(#paint2_linear)"/>
<g clip-path="url(#clip3)">
<path d="M42.9724 0H35.3037V40H57.7984L50.7972 32.9647H42.9439L42.9724 0Z" fill="white"/>
<path d="M79.2004 40H68.4501L48.54 19.9929L68.4359 0H79.2004L59.1909 20.107L79.2004 40Z" fill="white"/>
<path d="M25.0083 7.20656H30.9302V0.2854H5.35385C2.4 0.2854 0 2.68283 0 5.65108V18.0806C0 21.0489 2.4 23.4606 5.35385 23.4606H22.7219C23.7586 23.4606 24.5964 24.3025 24.5964 25.3443V30.6386C24.5964 31.6803 23.7586 32.5223 22.7219 32.5223H0V39.9857H25.8462C28.8994 39.9857 31.3846 37.4884 31.3846 34.4203V21.1202C31.3846 18.152 28.9846 15.7403 26.0308 15.7403H7.83905C6.80237 15.7403 5.9645 14.8983 5.9645 13.8566V9.09025C5.9645 8.04851 6.80237 7.20656 7.83905 7.20656H25.0083Z" fill="white"/>
<g clip-path="url(#clip4)">
<path d="M42.9724 0H35.3037V40H57.7984L50.7972 32.9647H42.9439L42.9724 0Z" fill="#204B67"/>
<path d="M79.2004 40H68.4501L48.54 19.9929L68.4359 0H79.2004L59.1909 20.107L79.2004 40Z" fill="#181817"/>
<path d="M25.0083 7.20656H30.9302V0.2854H5.35385C2.4 0.2854 0 2.68283 0 5.65108V18.0806C0 21.0489 2.4 23.4606 5.35385 23.4606H22.7219C23.7586 23.4606 24.5964 24.3025 24.5964 25.3443V30.6386C24.5964 31.6803 23.7586 32.5223 22.7219 32.5223H0V39.9857H25.8462C28.8994 39.9857 31.3846 37.4884 31.3846 34.4203V21.1202C31.3846 18.152 28.9846 15.7403 26.0308 15.7403H7.83905C6.80237 15.7403 5.9645 14.8983 5.9645 13.8566V9.09025C5.9645 8.04851 6.80237 7.20656 7.83905 7.20656H25.0083Z" fill="#59BBF2"/>
</g>
</g>
</g>
</g>
</g>
<defs>
<linearGradient id="paint0_linear" x1="28.7391" y1="20" x2="54.4303" y2="20" gradientUnits="userSpaceOnUse">
<stop stop-color="#41B6EF"/>
<stop offset="1" stop-color="#1D5D81"/>
</linearGradient>
<linearGradient id="paint1_linear" x1="48.7833" y1="20" x2="79.5995" y2="20" gradientUnits="userSpaceOnUse">
<stop stop-color="#41B6EF"/>
<stop offset="1" stop-color="#1D5D81"/>
</linearGradient>
<linearGradient id="paint2_linear" x1="0" y1="20.1403" x2="31.5453" y2="20.1403" gradientUnits="userSpaceOnUse">
<stop stop-color="#41B6EF"/>
<stop offset="1" stop-color="#1D5D81"/>
</linearGradient>
<clipPath id="clip0">
<rect width="79.2" height="40" fill="white"/>
</clipPath>
<clipPath id="clip1">
<rect width="79.2" height="40" fill="white"/>
</clipPath>
<clipPath id="clip2">
<rect width="79.6" height="40" fill="white"/>
</clipPath>
<clipPath id="clip3">
<rect width="79.2" height="40" fill="white"/>
</clipPath>
<clipPath id="clip4">
<rect width="79.2" height="40" fill="white"/>
</clipPath>
</defs>
</svg>
