<svg width="10" height="10" viewBox="0 0 10 10" fill="none" xmlns="http://www.w3.org/2000/svg">
<path d="M9.77581 7.90286L8.23146 6.35834C7.92386 6.05197 7.41446 6.06128 7.09614 6.37972L6.31809 7.15759C6.26894 7.1305 6.21806 7.1022 6.16457 7.07218C5.67324 6.79994 5.00077 6.42681 4.29314 5.71866C3.58341 5.00902 3.20993 4.33552 2.93686 3.84387C2.90804 3.79178 2.88044 3.74157 2.85317 3.69388L3.37535 3.17247L3.63208 2.91543C3.95089 2.59653 3.95968 2.08728 3.65279 1.78002L2.10845 0.235331C1.80157 -0.0714981 1.29194 -0.0621898 0.973128 0.256705L0.537879 0.694453L0.549773 0.706261C0.403829 0.892484 0.281873 1.10726 0.191117 1.33888C0.107457 1.55935 0.0553713 1.76973 0.0315547 1.98055C-0.172366 3.67109 0.600165 5.21613 2.69671 7.3127C5.59478 10.2106 7.93024 9.99165 8.03099 9.98096C8.25043 9.95473 8.46072 9.9023 8.67444 9.8193C8.90405 9.72961 9.11868 9.60782 9.30479 9.4622L9.3143 9.47064L9.75524 9.03887C10.0734 8.72003 10.0825 8.21061 9.77581 7.90286Z" fill="#FFD155"/>
</svg>
