<svg width="32" height="30" viewBox="0 0 32 30" fill="none" xmlns="http://www.w3.org/2000/svg">
<path d="M8 24V30.0001H24.0001V24V20H8V24ZM10 22H22.0001V24H10V22ZM10 26H22.0001V28H10V26Z" fill="#FFD155"/>
<path d="M24.0001 6.00004V0H8V6.00004V10.0001H24.0001V6.00004Z" fill="#FFD155"/>
<path d="M28.0002 6H26.0002V10V12H6.00004V10V6H4.00002C2.00001 6 0 8.00001 0 10V20.0001C0 22.0001 2.00001 24.0001 4.00002 24.0001H6.00004V20.0001V18.0001H26.0002V20.0001V24.0001H28.0002C30.0002 24.0001 32.0002 22.0001 32.0002 20.0001V10C32.0002 8.00001 30.0002 6 28.0002 6Z" fill="#FFD155"/>
</svg>
