<svg width="117" height="84" viewBox="0 0 117 84" fill="none" xmlns="http://www.w3.org/2000/svg">
<path d="M114.907 55.9753C114.907 55.9518 114.907 55.9284 114.907 55.9049C114.907 55.8814 114.907 55.8579 114.907 55.8579C114.907 55.8344 114.907 55.8344 114.883 55.8109C114.883 55.7874 114.86 55.7639 114.86 55.7405V55.717C114.86 55.717 114.86 55.6935 114.836 55.6935C114.836 55.67 114.813 55.6465 114.813 55.6465C114.813 55.623 114.789 55.623 114.766 55.5995C114.766 55.576 114.743 55.576 114.719 55.5526C114.696 55.5291 114.696 55.5291 114.672 55.5056C114.649 55.4821 114.649 55.4821 114.625 55.4821C114.602 55.4821 114.578 55.4586 114.578 55.4586C114.555 55.4586 114.555 55.4351 114.531 55.4351C114.508 55.4351 114.484 55.4351 114.484 55.4116C114.461 55.4116 114.461 55.4116 114.437 55.4116C114.414 55.4116 114.391 55.4116 114.367 55.4116H114.344H79.6372C76.0938 55.5291 72.6443 54.9654 69.359 53.7675L88.7655 43.6207C88.7655 43.6207 88.789 43.6207 88.789 43.5972C95.5003 39.6982 99.513 32.4404 99.2783 24.6894C98.9029 12.0294 88.4839 2 75.9295 2C75.6949 2 75.4367 2 75.2021 2C71.8933 2.11744 68.7254 2.82208 65.7687 4.11392C65.7452 4.11392 65.7452 4.1374 65.7218 4.1374L17.053 29.8332C14.1197 31.1955 11.4446 33.145 9.16837 35.5643C4.42821 40.6142 1.91733 47.2143 2.12853 54.1198C2.59785 69.6688 15.3869 82 30.8041 82C31.0857 82 31.3908 82 31.6959 81.9765H66.2615C66.2849 81.9765 66.3319 82 66.3553 82C66.4492 82 66.5431 81.9765 66.6369 81.9295L114.602 56.5156C114.602 56.5156 114.625 56.5156 114.625 56.4921C114.649 56.4921 114.649 56.4686 114.672 56.4451C114.696 56.4451 114.696 56.4216 114.719 56.4216C114.743 56.3981 114.743 56.3981 114.766 56.3746C114.789 56.3511 114.789 56.3511 114.813 56.3277C114.813 56.3042 114.836 56.3042 114.836 56.2807C114.836 56.2572 114.86 56.2572 114.86 56.2337C114.86 56.2102 114.883 56.1867 114.883 56.1867C114.883 56.1632 114.883 56.1398 114.907 56.1398C114.907 56.1163 114.907 56.0928 114.907 56.0928C114.907 56.0693 114.907 56.0458 114.907 56.0223V55.9988C114.907 55.9988 114.907 55.9988 114.907 55.9753Z" fill="white"/>
<path d="M114.814 55.9753C114.814 55.9518 114.814 55.9284 114.814 55.9049C114.814 55.8814 114.814 55.8579 114.814 55.8579C114.814 55.8344 114.814 55.8344 114.791 55.8109C114.791 55.7874 114.767 55.7639 114.767 55.7405V55.717C114.767 55.717 114.767 55.6935 114.744 55.6935C114.744 55.67 114.72 55.6465 114.72 55.6465C114.72 55.623 114.697 55.623 114.673 55.5995C114.673 55.576 114.65 55.576 114.626 55.5526C114.603 55.5291 114.603 55.5291 114.579 55.5056C114.556 55.4821 114.556 55.4821 114.532 55.4821C114.509 55.4821 114.486 55.4586 114.486 55.4586C114.462 55.4586 114.462 55.4351 114.439 55.4351C114.415 55.4351 114.392 55.4351 114.392 55.4116C114.368 55.4116 114.368 55.4116 114.345 55.4116C114.321 55.4116 114.298 55.4116 114.274 55.4116H114.251H79.5444C76.001 55.5291 72.5515 54.9654 69.2663 53.7675L88.6728 43.6207C88.6728 43.6207 88.6962 43.6207 88.6962 43.5972C95.4075 39.6982 99.4202 32.4404 99.1856 24.6894C98.8101 12.0294 88.3912 2 75.8368 2C75.6021 2 75.344 2 75.1093 2C71.8006 2.11744 68.6327 2.82208 65.6525 4.11392C65.629 4.11392 65.629 4.1374 65.6055 4.1374L16.9368 29.8332C14.0035 31.1955 11.3284 33.145 9.05216 35.5643C4.312 40.6142 1.80112 47.2143 2.01232 54.1198C2.48164 69.6688 15.2707 82 30.6879 82C30.9695 82 31.2746 82 31.5796 81.9765H66.1453C66.1687 81.9765 66.2157 82 66.2391 82C66.333 82 66.4269 81.9765 66.5207 81.9295L114.486 56.5156C114.486 56.5156 114.509 56.5156 114.509 56.4921C114.532 56.4921 114.532 56.4686 114.556 56.4451C114.579 56.4451 114.579 56.4216 114.603 56.4216C114.626 56.3981 114.626 56.3981 114.65 56.3746C114.673 56.3511 114.673 56.3511 114.697 56.3277C114.697 56.3042 114.72 56.3042 114.72 56.2807C114.72 56.2572 114.744 56.2572 114.744 56.2337C114.744 56.2102 114.767 56.1867 114.767 56.1867C114.767 56.1632 114.767 56.1398 114.791 56.1398C114.791 56.1163 114.791 56.0928 114.791 56.0928C114.791 56.0693 114.791 56.0458 114.791 56.0223V55.9988C114.814 55.9988 114.814 55.9988 114.814 55.9753Z" stroke="#59BBF2" stroke-width="3" stroke-miterlimit="10" stroke-linecap="round" stroke-linejoin="round"/>
<path d="M17.312 29.6688C20.5034 28.236 24.0702 27.4609 27.8013 27.4609C40.52 27.5079 50.8216 37.8426 50.7747 50.5966C50.7512 62.0587 41.4352 71.3364 29.9837 71.2895C19.6821 71.266 11.3516 62.8808 11.375 52.5461C11.3985 43.2683 18.9546 35.7522 28.2237 35.7757C36.5777 35.7992 43.3359 42.5872 43.289 50.9489C43.2655 58.465 37.1643 64.5484 29.6317 64.5249C22.8735 64.5014 17.4058 59.0053 17.4293 52.2407C17.4528 46.1573 22.4041 41.2249 28.4819 41.2484C33.9495 41.2719 38.3846 45.7111 38.3846 51.2073C38.3611 56.1397 34.3719 60.1327 29.4205 60.1092C24.9854 60.0857 21.3951 56.492 21.4186 52.0528C21.4186 48.0599 24.6803 44.842 28.6696 44.842C32.3772 44.842 35.7564 46.5801 37.9387 48.7175" stroke="#59BBF2" stroke-width="3" stroke-miterlimit="10" stroke-linecap="round" stroke-linejoin="round"/>
<path d="M69.2655 53.7676L37.375 70.0213" stroke="#59BBF2" stroke-width="3" stroke-miterlimit="10" stroke-linecap="round" stroke-linejoin="round"/>
</svg>
