<svg width="32" height="32" viewBox="0 0 32 32" fill="none" xmlns="http://www.w3.org/2000/svg">
<circle cx="15.5114" cy="15.5114" r="15.5114" fill="#FFD155"/>
<path d="M7.66619 15.3089L11.6401 17.2634C11.7938 17.3383 11.9753 17.3329 12.1222 17.248L15.6594 15.2187L13.5184 17.091C13.4094 17.1866 13.3471 17.3229 13.3471 17.4665V22.027C13.3471 22.5081 13.9693 22.7106 14.2612 22.3284L15.979 20.0745L20.2271 22.462C20.5251 22.6311 20.9069 22.4613 20.976 22.1252L23.6255 9.09534C23.7047 8.70377 23.31 8.38437 22.943 8.53004L7.70817 14.3935C7.2992 14.5512 7.27279 15.1158 7.66619 15.3089ZM22.4474 9.79695L20.1188 21.2479L16.0934 18.9854C15.874 18.8617 15.5917 18.9165 15.4359 19.1197L14.3627 20.5276V17.6917L20.1526 12.6294C20.611 12.2292 20.0843 11.5176 19.5609 11.8209L11.8487 16.2457L9.14566 14.9167L22.4474 9.79695Z" fill="white"/>
</svg>
