<svg width="32" height="32" viewBox="0 0 32 32" fill="none" xmlns="http://www.w3.org/2000/svg">
<circle cx="15.943" cy="15.5114" r="15.5114" fill="#FFD155"/>
<path fill-rule="evenodd" clip-rule="evenodd" d="M20.9151 10.5336C19.5959 9.21914 17.8413 8.49491 15.9722 8.49414C12.1206 8.49414 8.98594 11.6137 8.98439 15.4479C8.98388 16.6736 9.3056 17.87 9.91713 18.9246L8.92578 22.5282L12.6301 21.5612C13.6508 22.1153 14.7999 22.4073 15.9693 22.4076H15.9723C19.8234 22.4076 22.9584 19.2878 22.9599 15.4535C22.9607 13.5952 22.2345 11.8481 20.9151 10.5336ZM15.9722 21.2332H15.9698C14.9276 21.2328 13.9056 20.954 13.0137 20.4275L12.8017 20.3022L10.6035 20.8761L11.1903 18.7431L11.0521 18.5244C10.4707 17.6041 10.1637 16.5405 10.1642 15.4483C10.1654 12.2614 12.7709 9.66867 15.9745 9.66867C17.5258 9.66919 18.9841 10.2712 20.0806 11.3637C21.1771 12.4563 21.7807 13.9085 21.7801 15.453C21.7788 18.6402 19.1734 21.2332 15.9722 21.2332ZM19.1579 16.9042C18.9834 16.8171 18.1249 16.3969 17.9649 16.3388C17.8049 16.2808 17.6884 16.252 17.5721 16.4258C17.4557 16.5997 17.1211 16.9912 17.0192 17.1071C16.9173 17.2231 16.8156 17.2376 16.6409 17.1506C16.4663 17.0636 15.9038 16.8801 15.2368 16.2881C14.7178 15.8274 14.3674 15.2583 14.2655 15.0844C14.1638 14.9104 14.2647 14.8254 14.3421 14.7298C14.5311 14.4962 14.7204 14.2513 14.7786 14.1354C14.8368 14.0195 14.8077 13.918 14.7639 13.831C14.7204 13.7441 14.3712 12.8888 14.2258 12.5408C14.0839 12.2021 13.9401 12.2478 13.8328 12.2425C13.7311 12.2375 13.6147 12.2364 13.4982 12.2364C13.3818 12.2364 13.1927 12.2799 13.0326 12.4539C12.8726 12.6279 12.4216 13.0482 12.4216 13.9035C12.4216 14.7588 13.0472 15.585 13.1345 15.701C13.2218 15.817 14.3657 17.5721 16.1171 18.3247C16.5337 18.5039 16.8589 18.6107 17.1125 18.6908C17.5308 18.823 17.9113 18.8044 18.2122 18.7597C18.5477 18.7097 19.2451 18.3393 19.3908 17.9334C19.5362 17.5275 19.5362 17.1796 19.4925 17.1071C19.4489 17.0346 19.3325 16.9912 19.1579 16.9042Z" fill="white"/>
</svg>
