<svg width="31" height="32" viewBox="0 0 31 32" fill="none" xmlns="http://www.w3.org/2000/svg">
<rect x="0.863281" width="30.1364" height="31.0228" rx="15.0682" fill="#FFD155"/>
<path d="M17.0303 14.1528C17.0303 14.4638 17.0177 14.7569 17.0159 15.0464C17.012 15.2043 17.0308 15.362 17.0715 15.5147C17.0962 15.6121 17.1515 15.6992 17.2294 15.7631C17.2486 15.7782 17.2712 15.7885 17.2952 15.7931C17.3192 15.7978 17.344 15.7967 17.3675 15.7899C17.4513 15.7633 17.5279 15.718 17.5917 15.6577C17.745 15.5168 17.8833 15.3605 18.0042 15.1912C18.4331 14.5995 18.7868 13.9572 19.0571 13.2788C19.1056 13.1644 19.1522 13.0518 19.197 12.9356C19.2291 12.8469 19.293 12.773 19.3764 12.7283C19.4286 12.7092 19.484 12.7001 19.5396 12.7015C19.5647 12.7015 19.5916 12.7015 19.6185 12.7015H21.4122C21.5342 12.7015 21.6561 12.7015 21.7709 12.7015C21.8327 12.7094 21.893 12.7257 21.9503 12.7498C21.9968 12.7633 22.0374 12.7919 22.0657 12.8311C22.094 12.8703 22.1083 12.9178 22.1064 12.966C22.1064 13.0887 22.082 13.2102 22.0346 13.3235C21.9143 13.6136 21.7628 13.8899 21.5826 14.1474C21.2472 14.6586 20.8651 15.1358 20.5064 15.6237C20.3862 15.7864 20.2732 15.9544 20.1656 16.1241C20.1019 16.2181 20.0727 16.3311 20.0831 16.4441C20.0984 16.5535 20.1487 16.655 20.2266 16.7336C20.3575 16.873 20.4903 17.0106 20.6302 17.1411C21.005 17.4745 21.3568 17.8328 21.6831 18.2135C21.8352 18.3942 21.9663 18.5915 22.0741 18.8015C22.1005 18.8582 22.1187 18.9184 22.1279 18.9802C22.1441 19.0486 22.1377 19.1204 22.1095 19.1848C22.0814 19.2493 22.0331 19.3029 21.9718 19.3377C21.8519 19.4132 21.7136 19.4546 21.5718 19.4574C21.0427 19.4717 20.5136 19.4681 19.9862 19.4985C19.6471 19.515 19.3145 19.4011 19.0571 19.1804C18.8628 19.0212 18.6827 18.8454 18.519 18.6549C18.3397 18.4601 18.1728 18.2635 17.9809 18.0776C17.8994 17.9979 17.807 17.9299 17.7065 17.8757C17.642 17.8364 17.5656 17.8212 17.491 17.833C17.4164 17.8448 17.3484 17.8828 17.2993 17.94C17.2105 18.0467 17.1484 18.1729 17.1182 18.3082C17.0606 18.5144 17.0287 18.7269 17.0231 18.9409C17.0204 18.9942 17.015 19.0472 17.007 19.1C16.9969 19.1676 16.968 19.231 16.9236 19.2831C16.8793 19.3352 16.8211 19.3739 16.7558 19.3949C16.6689 19.4311 16.5757 19.4499 16.4814 19.4503C16.2446 19.4503 16.0079 19.4503 15.7639 19.4503C15.346 19.4455 14.9323 19.3662 14.5425 19.2161C13.8384 18.9519 13.2085 18.5228 12.7057 17.965C12.2069 17.4182 11.7623 16.8244 11.3784 16.1921C10.7703 15.2097 10.231 14.1868 9.76413 13.1305C9.73366 13.0608 9.72191 12.9844 9.73005 12.9088C9.73177 12.8806 9.7412 12.8533 9.75732 12.83C9.77344 12.8067 9.79564 12.7882 9.82152 12.7766C9.90997 12.7321 10.0076 12.7088 10.1067 12.7087H11.8896C11.9953 12.7158 12.0967 12.7534 12.1814 12.8168C12.2661 12.8803 12.3305 12.9669 12.3667 13.0661C12.5207 13.4718 12.706 13.865 12.921 14.2421C13.1537 14.662 13.4156 15.0651 13.7048 15.4486C13.8029 15.5904 13.9242 15.7148 14.0635 15.8167C14.1079 15.8537 14.1624 15.8765 14.22 15.8823C14.2776 15.888 14.3356 15.8764 14.3864 15.8489C14.442 15.8157 14.4854 15.7656 14.5102 15.7059C14.5753 15.5568 14.6153 15.398 14.6286 15.2359C14.6677 14.8583 14.6755 14.4781 14.6519 14.0992C14.6475 13.873 14.6241 13.6476 14.5819 13.4254C14.5712 13.3699 14.5514 13.3163 14.5407 13.2609C14.5277 13.2094 14.5037 13.1613 14.4703 13.1199C14.4368 13.0786 14.3947 13.045 14.3469 13.0214C14.2238 12.9452 14.0843 12.8992 13.9398 12.8874C13.8985 12.8874 13.8842 12.8659 13.9021 12.8302C13.9175 12.7946 13.938 12.7615 13.9631 12.7319C14.0943 12.5897 14.2714 12.498 14.4635 12.4727C14.7419 12.4251 15.0242 12.4042 15.3066 12.4102C15.6205 12.4102 15.9361 12.4102 16.2518 12.4298C16.3888 12.4385 16.5246 12.4606 16.6572 12.496C16.7628 12.5169 16.8582 12.5728 16.9279 12.6545C16.9976 12.7363 17.0374 12.8391 17.041 12.9464C17.0563 13.1187 17.0617 13.2917 17.0572 13.4647C17.0536 13.6988 17.0392 13.9347 17.0303 14.1528Z" fill="white"/>
</svg>
