<svg width="93" height="36" viewBox="0 0 93 36" fill="none" xmlns="http://www.w3.org/2000/svg">
<rect x="0.272461" width="92.7273" height="36" rx="5" fill="white" fill-opacity="0.1"/>
<path fill-rule="evenodd" clip-rule="evenodd" d="M27.9783 24.1259C27.7646 24.9156 27.4597 25.326 26.476 25.553C24.2975 25.9688 22.1189 26.0758 19.9401 26.0757C17.7616 26.0758 15.583 25.9688 13.4043 25.553C12.4209 25.326 12.1158 24.9156 11.9021 24.126C11.4711 21.9145 11.3609 19.7028 11.3613 17.4912C11.3607 15.2796 11.4711 13.068 11.9022 10.8564C12.1158 10.0667 12.4209 9.65633 13.4044 9.42928C15.5831 9.0136 17.7616 8.9066 19.9402 8.9066C22.119 8.90648 24.2976 9.0136 26.4761 9.42928C27.4598 9.65633 27.7646 10.0669 27.9784 10.8564C28.4096 13.068 28.5197 15.2796 28.5192 17.4912C28.5198 19.7028 28.4096 21.9145 27.9783 24.1259ZM30.8805 17.4813H30.8801C30.8791 15.135 30.6706 12.7885 30.249 10.4422C29.9841 8.89134 28.7634 7.53929 27.08 7.19417C24.7053 6.76161 22.3305 6.54713 19.9558 6.54527V6.54492C19.9505 6.54492 19.9454 6.54504 19.9401 6.54504C19.935 6.54504 19.9299 6.54492 19.9247 6.54492V6.54527C17.5501 6.54713 15.1752 6.76149 12.8005 7.19417C11.117 7.53929 9.89633 8.89146 9.63143 10.4422C9.20982 12.7885 9.0014 15.135 9.00035 17.4813H9C9 17.4846 9.00012 17.4879 9.00012 17.4912C9.00012 17.4945 9 17.498 9 17.5011H9.00035C9.0014 19.8474 9.20982 22.1939 9.63143 24.5403C9.89633 26.0908 11.117 27.4431 12.8005 27.7884C15.1752 28.2207 17.5499 28.4353 19.9247 28.4373V28.4374C19.9299 28.4374 19.935 28.4374 19.9401 28.4374C19.9455 28.4373 19.9506 28.4375 19.9558 28.4375V28.4369C22.3305 28.4353 24.7053 28.2208 27.08 27.7882C28.7634 27.4429 29.9842 26.0907 30.249 24.5401C30.6706 22.1936 30.8791 19.8473 30.8801 17.501H30.8805C30.8805 17.4976 30.8803 17.4943 30.8803 17.4911C30.8805 17.4878 30.8805 17.4846 30.8805 17.4813Z" fill="white"/>
<path fill-rule="evenodd" clip-rule="evenodd" d="M25.5016 21.1433L21.8858 17.5006L23.5076 15.8666C23.6302 15.7781 23.7379 15.6708 23.8248 15.5469L25.1764 14.1853C25.5165 13.8593 25.7864 13.531 25.7864 13.0596C25.7864 12.3165 25.1841 11.7143 24.4412 11.7143C24.0184 11.7143 23.674 11.9257 23.3897 12.1878L23.3815 12.2007L21.67 13.9246L21.6637 13.9183L19.9969 15.5977L18.3303 13.9185L18.3237 13.9247L16.6127 12.2008L16.6043 12.1931C16.2718 11.8775 15.9757 11.7143 15.5528 11.7143C14.8099 11.7143 14.2077 12.3165 14.2077 13.0596C14.2077 13.531 14.5044 13.8485 14.8176 14.1853L16.1692 15.5469C16.2561 15.6707 16.3638 15.7781 16.4865 15.8666L18.1082 17.5006L14.4925 21.1433L14.49 21.1358C14.3032 21.3668 14.207 21.6821 14.207 22.0023C14.207 22.7451 14.8092 23.3476 15.5522 23.3476C16.0269 23.3473 16.3732 23.0797 16.6826 22.7298L17.9772 21.4255C18.1465 21.32 18.2922 21.1799 18.4002 21.0122L19.9969 19.4035L21.5937 21.0122C21.7019 21.18 21.8475 21.32 22.0168 21.4257L23.3115 22.7299C23.6101 23.026 23.9672 23.3477 24.4419 23.3477C25.1848 23.3475 25.7871 22.7454 25.7871 22.0024C25.7871 21.6822 25.6961 21.3776 25.5093 21.1467L25.5016 21.1433ZM84.2484 22.5524C84.2315 22.4207 84.2061 22.3147 84.1724 22.2334C84.1387 22.1526 84.0965 22.0936 84.0457 22.0563C83.995 22.0192 83.9397 22.0005 83.8786 22.0005H78.3006V18.304H83.1193C83.1802 18.304 83.2358 18.2873 83.2864 18.2534C83.3372 18.2197 83.3792 18.1641 83.4131 18.0863C83.447 18.0086 83.4722 17.9057 83.489 17.7773C83.5059 17.6491 83.5145 17.4871 83.5145 17.2912C83.5145 17.1022 83.506 16.9418 83.489 16.8102C83.4722 16.6783 83.4467 16.5739 83.4131 16.4962C83.3794 16.4186 83.3369 16.3612 83.2864 16.3239C83.2358 16.2868 83.1802 16.2684 83.1193 16.2684H78.3006V13.0682H83.8382C83.8991 13.0682 83.9528 13.0497 84.0005 13.0127C84.0475 12.9756 84.0878 12.9164 84.1217 12.8354C84.1556 12.7543 84.1809 12.648 84.1976 12.5163C84.2145 12.3846 84.2231 12.2244 84.2231 12.0353C84.2231 11.8327 84.2146 11.6657 84.1976 11.534C84.1809 11.4022 84.1556 11.2945 84.1217 11.2098C84.0881 11.1255 84.0475 11.0665 84.0005 11.0327C83.9528 10.9988 83.8991 10.9819 83.8382 10.9819H76.4373C76.2148 10.9819 76.0271 11.048 75.8751 11.1796C75.7232 11.3112 75.6473 11.5257 75.6473 11.8226V23.2463C75.6473 23.5434 75.7232 23.7577 75.8751 23.8894C76.0271 24.021 76.2147 24.0868 76.4373 24.0868H83.8786C83.9396 24.0868 83.995 24.0684 84.0457 24.0311C84.0965 23.9942 84.1387 23.9348 84.1724 23.8537C84.2063 23.7729 84.2315 23.6665 84.2484 23.5348C84.2654 23.403 84.2737 23.2395 84.2737 23.0436C84.2738 22.848 84.2654 22.6841 84.2484 22.5524ZM71.334 11.994C71.2453 11.9021 71.0897 11.794 70.8665 11.6694C70.6432 11.5447 70.3628 11.4284 70.0249 11.3203C69.6872 11.212 69.2922 11.12 68.8397 11.0447C68.3868 10.9694 67.8855 10.9316 67.3342 10.9316C66.3305 10.9316 65.4209 11.0857 64.6042 11.3939C63.7877 11.7023 63.0902 12.1465 62.5137 12.727C61.9364 13.3074 61.4901 14.0125 61.1753 14.8423C60.8603 15.672 60.7029 16.6083 60.7029 17.6513C60.703 18.6613 60.8508 19.5647 61.1457 20.3616C61.4413 21.1587 61.867 21.8343 62.425 22.3884C62.9824 22.9427 63.6627 23.3659 64.4661 23.6575C65.2695 23.9494 66.1798 24.0955 67.1968 24.0955C67.5442 24.0955 67.8903 24.079 68.2348 24.0462C68.5791 24.0134 68.9199 23.9641 69.2577 23.8987C69.5956 23.8332 69.9219 23.7545 70.2367 23.6625C70.5514 23.5707 70.8156 23.4822 71.0287 23.3968C71.2415 23.3117 71.3827 23.1953 71.4521 23.0478C71.5208 22.9 71.5551 22.7279 71.5551 22.5312V17.2926C71.5551 17.1612 71.5382 17.0448 71.5056 16.9432C71.4731 16.8415 71.4255 16.7546 71.3632 16.6825C71.3007 16.6104 71.2289 16.5563 71.1468 16.5201C71.0647 16.484 70.9712 16.4661 70.8664 16.4661H66.567C66.5078 16.4661 66.4553 16.4843 66.4094 16.5201C66.3637 16.5563 66.3237 16.6121 66.2911 16.6875C66.2587 16.7629 66.2339 16.863 66.2176 16.9876C66.2014 17.1121 66.1928 17.2664 66.1928 17.4499C66.1929 17.8039 66.2255 18.055 66.291 18.2025C66.3568 18.35 66.4484 18.4238 66.5669 18.4238H68.9771V21.5471C68.7347 21.6785 68.4722 21.777 68.1899 21.8424C67.9082 21.9078 67.6229 21.9407 67.3339 21.9407C66.7441 21.9407 66.2042 21.8457 65.7156 21.6553C65.2272 21.4652 64.809 21.183 64.461 20.8093C64.1136 20.4354 63.8427 19.9715 63.6497 19.417C63.4562 18.8629 63.359 18.2217 63.359 17.4938C63.359 16.8312 63.4543 16.2261 63.6442 15.6785C63.8348 15.1308 64.1069 14.6619 64.461 14.2715C64.8158 13.8813 65.2415 13.5795 65.7403 13.3663C66.2387 13.1532 66.7959 13.0466 67.413 13.0466C67.9897 13.0466 68.4968 13.1056 68.933 13.2237C69.3691 13.3418 69.7443 13.4697 70.059 13.6073C70.374 13.7452 70.6266 13.8731 70.8167 13.991C71.0073 14.1091 71.1448 14.1681 71.2304 14.1681C71.2891 14.1681 71.3397 14.1518 71.3824 14.1191C71.4254 14.0862 71.4614 14.029 71.491 13.9468C71.5205 13.8649 71.5435 13.755 71.5596 13.6172C71.5761 13.4794 71.5844 13.3157 71.5844 13.1253C71.5844 12.7974 71.5647 12.5496 71.5253 12.3824C71.4865 12.2152 71.4226 12.086 71.334 11.994ZM50.2441 19.0526L52.0831 13.5241H52.0934L53.9331 19.0526H50.2441ZM54.0433 11.5337C54.0031 11.4066 53.9547 11.306 53.8976 11.2323C53.8407 11.1585 53.7468 11.1032 53.6165 11.0665C53.4855 11.0296 53.3027 11.0062 53.0682 10.996C52.8336 10.9859 52.5187 10.981 52.1235 10.981C51.7816 10.9809 51.5071 10.986 51.2991 10.996C51.0914 11.0062 50.9287 11.0296 50.8117 11.0665C50.6948 11.1033 50.6091 11.1569 50.5554 11.2272C50.5017 11.2975 50.4547 11.3897 50.4148 11.5036L46.4038 23.0432C46.3235 23.278 46.2733 23.4655 46.2528 23.6062C46.233 23.747 46.2566 23.8561 46.3234 23.9329C46.3905 24.01 46.511 24.0585 46.6854 24.0786C46.8598 24.0987 47.1011 24.1088 47.4092 24.1088C47.6969 24.1087 47.9303 24.102 48.1075 24.0887C48.285 24.0752 48.4225 24.05 48.5196 24.0132C48.6167 23.9765 48.6873 23.9263 48.7307 23.8625C48.7747 23.7989 48.8097 23.7202 48.8362 23.6262L49.6608 21.0831H54.5458L55.4203 23.6967C55.447 23.7839 55.4806 23.8543 55.521 23.9078C55.5616 23.9614 55.6315 24.0032 55.7322 24.0334C55.8325 24.0634 55.9783 24.0837 56.1696 24.0936C56.3602 24.1037 56.6268 24.1088 56.9688 24.1088C57.2969 24.1087 57.5551 24.1003 57.7426 24.0837C57.9302 24.0668 58.0605 24.0234 58.1347 23.9529C58.2084 23.8827 58.2354 23.777 58.2149 23.6362C58.1951 23.4956 58.1445 23.3045 58.0641 23.0632L54.0433 11.5337ZM41.8111 16.0913C41.7164 16.3784 41.5783 16.6247 41.3955 16.8305C41.2134 17.0366 40.9789 17.1968 40.6922 17.3116C40.4051 17.4263 40.0486 17.4836 39.6234 17.4836H37.8272V13.0377H39.5624C39.8394 13.0377 40.1077 13.0565 40.3677 13.0936C40.6277 13.1308 40.8755 13.2202 41.1119 13.3619C41.3484 13.5036 41.5474 13.7232 41.7097 14.0201C41.872 14.3173 41.9528 14.6956 41.9528 15.1544C41.953 15.4921 41.9059 15.8044 41.8111 16.0913ZM43.8668 12.3948C43.5833 12.0742 43.2407 11.8091 42.8389 11.5999C42.4373 11.3906 42.0403 11.2472 41.6489 11.1693C41.2576 11.0919 40.9214 11.0412 40.6417 11.0175C40.361 10.9938 40.0656 10.9818 39.7555 10.9818H36.0654C35.7952 10.9818 35.5774 11.0614 35.4123 11.2199C35.2465 11.3784 35.1637 11.6166 35.1637 11.9339V23.7222C35.1637 23.7896 35.1842 23.8504 35.2247 23.9044C35.2651 23.9584 35.3362 24.0023 35.4375 24.0361C35.539 24.07 35.6752 24.0967 35.8477 24.1171C36.0196 24.1373 36.2338 24.1475 36.4906 24.1475C36.7537 24.1474 36.9702 24.1373 37.1391 24.1171C37.3074 24.0967 37.4425 24.07 37.5439 24.0361C37.6453 24.0024 37.7176 23.9584 37.7615 23.9044C37.8056 23.8504 37.8273 23.7897 37.8273 23.7222V19.5395H39.5221C40.3864 19.5395 41.1373 19.4381 41.7756 19.2356C42.4137 19.0329 42.9517 18.7378 43.3908 18.3494C43.83 17.9614 44.1642 17.4834 44.3932 16.9163C44.6232 16.3494 44.7378 15.6977 44.7378 14.962C44.7378 14.4287 44.6636 13.9476 44.5151 13.5187C44.3662 13.0903 44.1503 12.7154 43.8668 12.3948Z" fill="white"/>
</svg>
